<mxfile host="Electron" modified="2024-07-01T19:16:46.300Z" agent="Mozilla/5.0 (Windows NT 10.0; Win64; x64) AppleWebKit/537.36 (KHTML, like Gecko) draw.io/24.6.4 Chrome/124.0.6367.207 Electron/30.0.6 Safari/537.36" etag="BAbR5lhXyhbCnLdseAdC" version="24.6.4" type="device">
  <diagram id="t-pnMxglqVL1bs8oML7X" name="Página-1">
    <mxGraphModel dx="4291" dy="1136" grid="1" gridSize="10" guides="1" tooltips="1" connect="1" arrows="1" fold="1" page="1" pageScale="1" pageWidth="1169" pageHeight="827" math="0" shadow="0">
      <root>
        <mxCell id="0" />
        <mxCell id="1" parent="0" />
        <mxCell id="mmlNpVnvn-ikq8rBzPxx-4" style="edgeStyle=orthogonalEdgeStyle;orthogonalLoop=1;jettySize=auto;html=1;entryX=0.5;entryY=1;entryDx=0;entryDy=0;curved=1;" parent="1" target="mmlNpVnvn-ikq8rBzPxx-2" edge="1">
          <mxGeometry relative="1" as="geometry">
            <mxPoint x="280" y="210" as="sourcePoint" />
          </mxGeometry>
        </mxCell>
        <mxCell id="mmlNpVnvn-ikq8rBzPxx-5" style="edgeStyle=orthogonalEdgeStyle;curved=1;orthogonalLoop=1;jettySize=auto;html=1;entryX=0.5;entryY=1;entryDx=0;entryDy=0;" parent="1" target="mmlNpVnvn-ikq8rBzPxx-3" edge="1">
          <mxGeometry relative="1" as="geometry">
            <mxPoint x="320" y="210" as="sourcePoint" />
          </mxGeometry>
        </mxCell>
        <mxCell id="mmlNpVnvn-ikq8rBzPxx-1" value="Invitado&lt;br&gt;" style="shape=umlActor;verticalLabelPosition=bottom;labelBackgroundColor=none;verticalAlign=top;html=1;outlineConnect=0;fontColor=#FFFFFF;" parent="1" vertex="1">
          <mxGeometry x="280" y="170" width="40" height="70" as="geometry" />
        </mxCell>
        <mxCell id="mmlNpVnvn-ikq8rBzPxx-2" value="Iniciar sesión" style="ellipse;whiteSpace=wrap;html=1;align=center;" parent="1" vertex="1">
          <mxGeometry x="140" y="120" width="100" height="40" as="geometry" />
        </mxCell>
        <mxCell id="mmlNpVnvn-ikq8rBzPxx-3" value="Cambiar Idioma" style="ellipse;whiteSpace=wrap;html=1;align=center;" parent="1" vertex="1">
          <mxGeometry x="360" y="120" width="100" height="40" as="geometry" />
        </mxCell>
        <mxCell id="mmlNpVnvn-ikq8rBzPxx-26" style="edgeStyle=orthogonalEdgeStyle;curved=1;orthogonalLoop=1;jettySize=auto;html=1;entryX=1;entryY=0.5;entryDx=0;entryDy=0;" parent="1" target="mmlNpVnvn-ikq8rBzPxx-13" edge="1">
          <mxGeometry relative="1" as="geometry">
            <mxPoint x="280" y="500" as="sourcePoint" />
            <Array as="points">
              <mxPoint x="280" y="500" />
            </Array>
          </mxGeometry>
        </mxCell>
        <mxCell id="mmlNpVnvn-ikq8rBzPxx-27" style="edgeStyle=orthogonalEdgeStyle;curved=1;orthogonalLoop=1;jettySize=auto;html=1;entryX=0;entryY=0.5;entryDx=0;entryDy=0;" parent="1" target="mmlNpVnvn-ikq8rBzPxx-21" edge="1">
          <mxGeometry relative="1" as="geometry">
            <mxPoint x="320" y="500" as="sourcePoint" />
          </mxGeometry>
        </mxCell>
        <mxCell id="mmlNpVnvn-ikq8rBzPxx-29" style="edgeStyle=orthogonalEdgeStyle;curved=1;orthogonalLoop=1;jettySize=auto;html=1;entryX=0.5;entryY=1;entryDx=0;entryDy=0;" parent="1" target="mmlNpVnvn-ikq8rBzPxx-11" edge="1">
          <mxGeometry relative="1" as="geometry">
            <mxPoint x="280" y="470" as="sourcePoint" />
          </mxGeometry>
        </mxCell>
        <mxCell id="mmlNpVnvn-ikq8rBzPxx-30" style="edgeStyle=orthogonalEdgeStyle;curved=1;orthogonalLoop=1;jettySize=auto;html=1;entryX=0.5;entryY=1;entryDx=0;entryDy=0;" parent="1" target="mmlNpVnvn-ikq8rBzPxx-12" edge="1">
          <mxGeometry relative="1" as="geometry">
            <mxPoint x="320" y="470" as="sourcePoint" />
          </mxGeometry>
        </mxCell>
        <mxCell id="mmlNpVnvn-ikq8rBzPxx-33" style="edgeStyle=orthogonalEdgeStyle;curved=1;orthogonalLoop=1;jettySize=auto;html=1;entryX=0.5;entryY=0;entryDx=0;entryDy=0;" parent="1" target="mmlNpVnvn-ikq8rBzPxx-16" edge="1">
          <mxGeometry relative="1" as="geometry">
            <mxPoint x="320" y="530" as="sourcePoint" />
          </mxGeometry>
        </mxCell>
        <mxCell id="mmlNpVnvn-ikq8rBzPxx-45" style="edgeStyle=orthogonalEdgeStyle;curved=1;orthogonalLoop=1;jettySize=auto;html=1;entryX=0.5;entryY=0;entryDx=0;entryDy=0;" parent="1" target="mmlNpVnvn-ikq8rBzPxx-43" edge="1">
          <mxGeometry relative="1" as="geometry">
            <mxPoint x="280" y="530" as="sourcePoint" />
          </mxGeometry>
        </mxCell>
        <mxCell id="y_pkQ9m9Z_-Nu_0SvpAD-1" value="" style="edgeStyle=orthogonalEdgeStyle;rounded=0;orthogonalLoop=1;jettySize=auto;html=1;" parent="1" source="mmlNpVnvn-ikq8rBzPxx-8" target="mmlNpVnvn-ikq8rBzPxx-46" edge="1">
          <mxGeometry relative="1" as="geometry" />
        </mxCell>
        <mxCell id="mmlNpVnvn-ikq8rBzPxx-8" value="Employee" style="shape=umlActor;verticalLabelPosition=bottom;labelBackgroundColor=none;verticalAlign=top;html=1;outlineConnect=0;" parent="1" vertex="1">
          <mxGeometry x="280" y="440" width="40" height="70" as="geometry" />
        </mxCell>
        <mxCell id="mmlNpVnvn-ikq8rBzPxx-11" value="Cerrar sesión" style="ellipse;whiteSpace=wrap;html=1;align=center;" parent="1" vertex="1">
          <mxGeometry x="140" y="360" width="100" height="40" as="geometry" />
        </mxCell>
        <mxCell id="mmlNpVnvn-ikq8rBzPxx-12" value="Cambiar Idioma" style="ellipse;whiteSpace=wrap;html=1;align=center;" parent="1" vertex="1">
          <mxGeometry x="360" y="360" width="100" height="40" as="geometry" />
        </mxCell>
        <mxCell id="mmlNpVnvn-ikq8rBzPxx-39" style="edgeStyle=orthogonalEdgeStyle;curved=1;orthogonalLoop=1;jettySize=auto;html=1;exitX=0;exitY=0.5;exitDx=0;exitDy=0;entryX=1;entryY=0.5;entryDx=0;entryDy=0;" parent="1" source="mmlNpVnvn-ikq8rBzPxx-13" target="mmlNpVnvn-ikq8rBzPxx-14" edge="1">
          <mxGeometry relative="1" as="geometry" />
        </mxCell>
        <mxCell id="mmlNpVnvn-ikq8rBzPxx-40" style="edgeStyle=orthogonalEdgeStyle;curved=1;orthogonalLoop=1;jettySize=auto;html=1;exitX=0;exitY=0.5;exitDx=0;exitDy=0;entryX=1;entryY=0.5;entryDx=0;entryDy=0;" parent="1" source="mmlNpVnvn-ikq8rBzPxx-13" target="mmlNpVnvn-ikq8rBzPxx-15" edge="1">
          <mxGeometry relative="1" as="geometry" />
        </mxCell>
        <mxCell id="mmlNpVnvn-ikq8rBzPxx-13" value="Ver perfil" style="ellipse;whiteSpace=wrap;html=1;align=center;" parent="1" vertex="1">
          <mxGeometry x="100" y="480" width="100" height="40" as="geometry" />
        </mxCell>
        <mxCell id="mmlNpVnvn-ikq8rBzPxx-14" value="Modificar contraseña" style="ellipse;whiteSpace=wrap;html=1;align=center;" parent="1" vertex="1">
          <mxGeometry x="-60" y="440" width="100" height="40" as="geometry" />
        </mxCell>
        <mxCell id="mmlNpVnvn-ikq8rBzPxx-15" value="Editar perfil" style="ellipse;whiteSpace=wrap;html=1;align=center;" parent="1" vertex="1">
          <mxGeometry x="-60" y="520" width="100" height="40" as="geometry" />
        </mxCell>
        <mxCell id="mmlNpVnvn-ikq8rBzPxx-34" style="edgeStyle=orthogonalEdgeStyle;curved=1;orthogonalLoop=1;jettySize=auto;html=1;exitX=0.5;exitY=1;exitDx=0;exitDy=0;entryX=1;entryY=0.5;entryDx=0;entryDy=0;" parent="1" source="mmlNpVnvn-ikq8rBzPxx-16" target="mmlNpVnvn-ikq8rBzPxx-17" edge="1">
          <mxGeometry relative="1" as="geometry" />
        </mxCell>
        <mxCell id="mmlNpVnvn-ikq8rBzPxx-48" style="edgeStyle=orthogonalEdgeStyle;curved=1;orthogonalLoop=1;jettySize=auto;html=1;exitX=0;exitY=0.5;exitDx=0;exitDy=0;entryX=1;entryY=0.5;entryDx=0;entryDy=0;" parent="1" source="mmlNpVnvn-ikq8rBzPxx-16" target="mmlNpVnvn-ikq8rBzPxx-46" edge="1">
          <mxGeometry relative="1" as="geometry" />
        </mxCell>
        <mxCell id="mmlNpVnvn-ikq8rBzPxx-16" value="Buscar productos" style="ellipse;whiteSpace=wrap;html=1;align=center;" parent="1" vertex="1">
          <mxGeometry x="400" y="600" width="100" height="40" as="geometry" />
        </mxCell>
        <mxCell id="mmlNpVnvn-ikq8rBzPxx-35" style="edgeStyle=orthogonalEdgeStyle;curved=1;orthogonalLoop=1;jettySize=auto;html=1;exitX=0.5;exitY=1;exitDx=0;exitDy=0;entryX=0.5;entryY=0;entryDx=0;entryDy=0;" parent="1" source="mmlNpVnvn-ikq8rBzPxx-17" edge="1">
          <mxGeometry relative="1" as="geometry">
            <mxPoint x="300" y="760" as="targetPoint" />
          </mxGeometry>
        </mxCell>
        <mxCell id="mmlNpVnvn-ikq8rBzPxx-17" value="Ver producto" style="ellipse;whiteSpace=wrap;html=1;align=center;" parent="1" vertex="1">
          <mxGeometry x="250" y="680" width="100" height="40" as="geometry" />
        </mxCell>
        <mxCell id="mmlNpVnvn-ikq8rBzPxx-36" style="edgeStyle=orthogonalEdgeStyle;curved=1;orthogonalLoop=1;jettySize=auto;html=1;exitX=1;exitY=0.5;exitDx=0;exitDy=0;entryX=0.5;entryY=1;entryDx=0;entryDy=0;" parent="1" target="mmlNpVnvn-ikq8rBzPxx-20" edge="1">
          <mxGeometry relative="1" as="geometry">
            <mxPoint x="350" y="780" as="sourcePoint" />
          </mxGeometry>
        </mxCell>
        <mxCell id="mmlNpVnvn-ikq8rBzPxx-42" style="edgeStyle=orthogonalEdgeStyle;curved=1;orthogonalLoop=1;jettySize=auto;html=1;exitX=0;exitY=0.5;exitDx=0;exitDy=0;entryX=0.5;entryY=1;entryDx=0;entryDy=0;" parent="1" target="mmlNpVnvn-ikq8rBzPxx-19" edge="1">
          <mxGeometry relative="1" as="geometry">
            <mxPoint x="250" y="780" as="sourcePoint" />
          </mxGeometry>
        </mxCell>
        <mxCell id="mmlNpVnvn-ikq8rBzPxx-19" value="Modificar stock" style="ellipse;whiteSpace=wrap;html=1;align=center;" parent="1" vertex="1">
          <mxGeometry x="60" y="720" width="100" height="40" as="geometry" />
        </mxCell>
        <mxCell id="mmlNpVnvn-ikq8rBzPxx-20" value="Añadir stock" style="ellipse;whiteSpace=wrap;html=1;align=center;" parent="1" vertex="1">
          <mxGeometry x="440" y="720" width="100" height="40" as="geometry" />
        </mxCell>
        <mxCell id="mmlNpVnvn-ikq8rBzPxx-31" style="edgeStyle=orthogonalEdgeStyle;curved=1;orthogonalLoop=1;jettySize=auto;html=1;exitX=1;exitY=0.5;exitDx=0;exitDy=0;entryX=0;entryY=0.5;entryDx=0;entryDy=0;" parent="1" source="mmlNpVnvn-ikq8rBzPxx-21" target="mmlNpVnvn-ikq8rBzPxx-22" edge="1">
          <mxGeometry relative="1" as="geometry" />
        </mxCell>
        <mxCell id="mmlNpVnvn-ikq8rBzPxx-32" style="edgeStyle=orthogonalEdgeStyle;curved=1;orthogonalLoop=1;jettySize=auto;html=1;exitX=1;exitY=0.5;exitDx=0;exitDy=0;entryX=0;entryY=0.5;entryDx=0;entryDy=0;" parent="1" source="mmlNpVnvn-ikq8rBzPxx-21" target="mmlNpVnvn-ikq8rBzPxx-24" edge="1">
          <mxGeometry relative="1" as="geometry" />
        </mxCell>
        <mxCell id="mmlNpVnvn-ikq8rBzPxx-21" value="Crear albarán" style="ellipse;whiteSpace=wrap;html=1;align=center;" parent="1" vertex="1">
          <mxGeometry x="400" y="480" width="100" height="40" as="geometry" />
        </mxCell>
        <mxCell id="mmlNpVnvn-ikq8rBzPxx-22" value="Añadir Noteline" style="ellipse;whiteSpace=wrap;html=1;align=center;" parent="1" vertex="1">
          <mxGeometry x="560" y="440" width="100" height="40" as="geometry" />
        </mxCell>
        <mxCell id="mmlNpVnvn-ikq8rBzPxx-24" value="Añadir comentario" style="ellipse;whiteSpace=wrap;html=1;align=center;" parent="1" vertex="1">
          <mxGeometry x="560" y="520" width="100" height="40" as="geometry" />
        </mxCell>
        <mxCell id="mmlNpVnvn-ikq8rBzPxx-44" style="edgeStyle=orthogonalEdgeStyle;curved=1;orthogonalLoop=1;jettySize=auto;html=1;exitX=0.5;exitY=1;exitDx=0;exitDy=0;entryX=0;entryY=0.5;entryDx=0;entryDy=0;" parent="1" source="mmlNpVnvn-ikq8rBzPxx-43" target="mmlNpVnvn-ikq8rBzPxx-17" edge="1">
          <mxGeometry relative="1" as="geometry" />
        </mxCell>
        <mxCell id="mmlNpVnvn-ikq8rBzPxx-47" style="edgeStyle=orthogonalEdgeStyle;curved=1;orthogonalLoop=1;jettySize=auto;html=1;exitX=1;exitY=0.5;exitDx=0;exitDy=0;entryX=0;entryY=0.5;entryDx=0;entryDy=0;" parent="1" source="mmlNpVnvn-ikq8rBzPxx-43" target="mmlNpVnvn-ikq8rBzPxx-46" edge="1">
          <mxGeometry relative="1" as="geometry" />
        </mxCell>
        <mxCell id="mmlNpVnvn-ikq8rBzPxx-43" value="Ver lista productos" style="ellipse;whiteSpace=wrap;html=1;align=center;" parent="1" vertex="1">
          <mxGeometry x="100" y="600" width="100" height="40" as="geometry" />
        </mxCell>
        <mxCell id="mmlNpVnvn-ikq8rBzPxx-46" value="Filtrar productos" style="ellipse;whiteSpace=wrap;html=1;align=center;" parent="1" vertex="1">
          <mxGeometry x="250" y="600" width="100" height="40" as="geometry" />
        </mxCell>
        <mxCell id="mmlNpVnvn-ikq8rBzPxx-91" value="Editar producto" style="ellipse;whiteSpace=wrap;html=1;align=center;" parent="1" vertex="1">
          <mxGeometry x="250" y="760" width="100" height="40" as="geometry" />
        </mxCell>
        <mxCell id="y_pkQ9m9Z_-Nu_0SvpAD-2" style="edgeStyle=orthogonalEdgeStyle;curved=1;orthogonalLoop=1;jettySize=auto;html=1;entryX=0;entryY=0.5;entryDx=0;entryDy=0;" parent="1" target="y_pkQ9m9Z_-Nu_0SvpAD-38" edge="1">
          <mxGeometry relative="1" as="geometry">
            <mxPoint x="-760" y="410" as="sourcePoint" />
          </mxGeometry>
        </mxCell>
        <mxCell id="y_pkQ9m9Z_-Nu_0SvpAD-3" style="edgeStyle=orthogonalEdgeStyle;curved=1;orthogonalLoop=1;jettySize=auto;html=1;entryX=0.5;entryY=1;entryDx=0;entryDy=0;exitX=0.75;exitY=0.1;exitDx=0;exitDy=0;exitPerimeter=0;" parent="1" source="y_pkQ9m9Z_-Nu_0SvpAD-15" target="y_pkQ9m9Z_-Nu_0SvpAD-17" edge="1">
          <mxGeometry relative="1" as="geometry">
            <mxPoint x="-760" y="390" as="sourcePoint" />
          </mxGeometry>
        </mxCell>
        <mxCell id="y_pkQ9m9Z_-Nu_0SvpAD-4" style="edgeStyle=orthogonalEdgeStyle;curved=1;orthogonalLoop=1;jettySize=auto;html=1;entryX=0.5;entryY=0;entryDx=0;entryDy=0;" parent="1" target="y_pkQ9m9Z_-Nu_0SvpAD-43" edge="1">
          <mxGeometry relative="1" as="geometry">
            <mxPoint x="-800" y="470" as="sourcePoint" />
            <Array as="points">
              <mxPoint x="-800" y="500" />
              <mxPoint x="-1010" y="500" />
            </Array>
          </mxGeometry>
        </mxCell>
        <mxCell id="y_pkQ9m9Z_-Nu_0SvpAD-5" style="edgeStyle=orthogonalEdgeStyle;curved=1;orthogonalLoop=1;jettySize=auto;html=1;" parent="1" target="y_pkQ9m9Z_-Nu_0SvpAD-25" edge="1">
          <mxGeometry relative="1" as="geometry">
            <mxPoint x="-780" y="470" as="sourcePoint" />
          </mxGeometry>
        </mxCell>
        <mxCell id="y_pkQ9m9Z_-Nu_0SvpAD-6" style="edgeStyle=orthogonalEdgeStyle;curved=1;orthogonalLoop=1;jettySize=auto;html=1;entryX=0.5;entryY=0;entryDx=0;entryDy=0;" parent="1" target="y_pkQ9m9Z_-Nu_0SvpAD-46" edge="1">
          <mxGeometry relative="1" as="geometry">
            <mxPoint x="-760" y="470" as="sourcePoint" />
            <Array as="points">
              <mxPoint x="-760" y="530" />
              <mxPoint x="-640" y="530" />
            </Array>
          </mxGeometry>
        </mxCell>
        <mxCell id="y_pkQ9m9Z_-Nu_0SvpAD-7" style="edgeStyle=orthogonalEdgeStyle;curved=1;orthogonalLoop=1;jettySize=auto;html=1;entryX=0.5;entryY=1;entryDx=0;entryDy=0;" parent="1" target="y_pkQ9m9Z_-Nu_0SvpAD-20" edge="1">
          <mxGeometry relative="1" as="geometry">
            <mxPoint x="-790" y="390" as="sourcePoint" />
            <Array as="points">
              <mxPoint x="-870" y="390" />
            </Array>
          </mxGeometry>
        </mxCell>
        <mxCell id="y_pkQ9m9Z_-Nu_0SvpAD-8" style="edgeStyle=orthogonalEdgeStyle;curved=1;orthogonalLoop=1;jettySize=auto;html=1;entryX=1;entryY=0.5;entryDx=0;entryDy=0;" parent="1" target="y_pkQ9m9Z_-Nu_0SvpAD-54" edge="1">
          <mxGeometry relative="1" as="geometry">
            <mxPoint x="-800" y="410" as="sourcePoint" />
          </mxGeometry>
        </mxCell>
        <mxCell id="y_pkQ9m9Z_-Nu_0SvpAD-9" style="edgeStyle=orthogonalEdgeStyle;curved=1;orthogonalLoop=1;jettySize=auto;html=1;entryX=1;entryY=0.5;entryDx=0;entryDy=0;" parent="1" target="y_pkQ9m9Z_-Nu_0SvpAD-57" edge="1">
          <mxGeometry relative="1" as="geometry">
            <mxPoint x="-800" y="420" as="sourcePoint" />
            <Array as="points">
              <mxPoint x="-900" y="420" />
              <mxPoint x="-900" y="340" />
            </Array>
          </mxGeometry>
        </mxCell>
        <mxCell id="y_pkQ9m9Z_-Nu_0SvpAD-10" style="edgeStyle=orthogonalEdgeStyle;curved=1;orthogonalLoop=1;jettySize=auto;html=1;entryX=1;entryY=0.5;entryDx=0;entryDy=0;" parent="1" target="y_pkQ9m9Z_-Nu_0SvpAD-52" edge="1">
          <mxGeometry relative="1" as="geometry">
            <mxPoint x="-800" y="430" as="sourcePoint" />
            <Array as="points">
              <mxPoint x="-900" y="430" />
              <mxPoint x="-900" y="490" />
            </Array>
          </mxGeometry>
        </mxCell>
        <mxCell id="y_pkQ9m9Z_-Nu_0SvpAD-11" style="edgeStyle=orthogonalEdgeStyle;curved=1;orthogonalLoop=1;jettySize=auto;html=1;exitX=0.25;exitY=0.1;exitDx=0;exitDy=0;exitPerimeter=0;entryX=0.5;entryY=1;entryDx=0;entryDy=0;" parent="1" source="y_pkQ9m9Z_-Nu_0SvpAD-15" target="y_pkQ9m9Z_-Nu_0SvpAD-16" edge="1">
          <mxGeometry relative="1" as="geometry">
            <Array as="points">
              <mxPoint x="-810" y="387" />
            </Array>
          </mxGeometry>
        </mxCell>
        <mxCell id="y_pkQ9m9Z_-Nu_0SvpAD-13" style="edgeStyle=orthogonalEdgeStyle;curved=1;orthogonalLoop=1;jettySize=auto;html=1;entryX=0;entryY=0.5;entryDx=0;entryDy=0;" parent="1" target="y_pkQ9m9Z_-Nu_0SvpAD-64" edge="1">
          <mxGeometry relative="1" as="geometry">
            <mxPoint x="-760" y="420" as="sourcePoint" />
            <Array as="points">
              <mxPoint x="-650" y="420" />
              <mxPoint x="-650" y="330" />
            </Array>
          </mxGeometry>
        </mxCell>
        <mxCell id="y_pkQ9m9Z_-Nu_0SvpAD-14" style="edgeStyle=orthogonalEdgeStyle;curved=1;orthogonalLoop=1;jettySize=auto;html=1;entryX=0;entryY=0.5;entryDx=0;entryDy=0;" parent="1" target="y_pkQ9m9Z_-Nu_0SvpAD-67" edge="1">
          <mxGeometry relative="1" as="geometry">
            <mxPoint x="-760" y="430" as="sourcePoint" />
          </mxGeometry>
        </mxCell>
        <mxCell id="y_pkQ9m9Z_-Nu_0SvpAD-72" style="edgeStyle=orthogonalEdgeStyle;rounded=0;orthogonalLoop=1;jettySize=auto;html=1;exitX=1;exitY=1;exitDx=0;exitDy=0;exitPerimeter=0;entryX=0;entryY=0.5;entryDx=0;entryDy=0;curved=1;" parent="1" source="y_pkQ9m9Z_-Nu_0SvpAD-15" target="y_pkQ9m9Z_-Nu_0SvpAD-70" edge="1">
          <mxGeometry relative="1" as="geometry" />
        </mxCell>
        <mxCell id="y_pkQ9m9Z_-Nu_0SvpAD-15" value="Clerk" style="shape=umlActor;verticalLabelPosition=bottom;labelBackgroundColor=none;verticalAlign=top;html=1;outlineConnect=0;" parent="1" vertex="1">
          <mxGeometry x="-800" y="380" width="40" height="70" as="geometry" />
        </mxCell>
        <mxCell id="y_pkQ9m9Z_-Nu_0SvpAD-16" value="Cerrar sesión" style="ellipse;whiteSpace=wrap;html=1;align=center;" parent="1" vertex="1">
          <mxGeometry x="-860" y="260" width="100" height="40" as="geometry" />
        </mxCell>
        <mxCell id="y_pkQ9m9Z_-Nu_0SvpAD-17" value="Cambiar Idioma" style="ellipse;whiteSpace=wrap;html=1;align=center;" parent="1" vertex="1">
          <mxGeometry x="-740" y="260" width="100" height="40" as="geometry" />
        </mxCell>
        <mxCell id="y_pkQ9m9Z_-Nu_0SvpAD-18" style="edgeStyle=orthogonalEdgeStyle;curved=1;orthogonalLoop=1;jettySize=auto;html=1;exitX=0.5;exitY=0;exitDx=0;exitDy=0;entryX=0.5;entryY=1;entryDx=0;entryDy=0;" parent="1" source="y_pkQ9m9Z_-Nu_0SvpAD-20" target="y_pkQ9m9Z_-Nu_0SvpAD-22" edge="1">
          <mxGeometry relative="1" as="geometry" />
        </mxCell>
        <mxCell id="y_pkQ9m9Z_-Nu_0SvpAD-19" style="edgeStyle=orthogonalEdgeStyle;curved=1;orthogonalLoop=1;jettySize=auto;html=1;exitX=0.5;exitY=0;exitDx=0;exitDy=0;entryX=0.5;entryY=1;entryDx=0;entryDy=0;" parent="1" source="y_pkQ9m9Z_-Nu_0SvpAD-20" target="y_pkQ9m9Z_-Nu_0SvpAD-21" edge="1">
          <mxGeometry relative="1" as="geometry" />
        </mxCell>
        <mxCell id="y_pkQ9m9Z_-Nu_0SvpAD-20" value="Ver perfil" style="ellipse;whiteSpace=wrap;html=1;align=center;" parent="1" vertex="1">
          <mxGeometry x="-920" y="200" width="100" height="40" as="geometry" />
        </mxCell>
        <mxCell id="y_pkQ9m9Z_-Nu_0SvpAD-21" value="Modificar contraseña" style="ellipse;whiteSpace=wrap;html=1;align=center;" parent="1" vertex="1">
          <mxGeometry x="-860" y="120" width="100" height="40" as="geometry" />
        </mxCell>
        <mxCell id="y_pkQ9m9Z_-Nu_0SvpAD-22" value="Editar perfil" style="ellipse;whiteSpace=wrap;html=1;align=center;" parent="1" vertex="1">
          <mxGeometry x="-980" y="120" width="100" height="40" as="geometry" />
        </mxCell>
        <mxCell id="y_pkQ9m9Z_-Nu_0SvpAD-23" style="edgeStyle=orthogonalEdgeStyle;curved=1;orthogonalLoop=1;jettySize=auto;html=1;exitX=0.5;exitY=1;exitDx=0;exitDy=0;entryX=0.5;entryY=0;entryDx=0;entryDy=0;" parent="1" source="y_pkQ9m9Z_-Nu_0SvpAD-25" target="y_pkQ9m9Z_-Nu_0SvpAD-27" edge="1">
          <mxGeometry relative="1" as="geometry" />
        </mxCell>
        <mxCell id="y_pkQ9m9Z_-Nu_0SvpAD-24" style="edgeStyle=orthogonalEdgeStyle;curved=1;orthogonalLoop=1;jettySize=auto;html=1;exitX=0;exitY=0.5;exitDx=0;exitDy=0;" parent="1" source="y_pkQ9m9Z_-Nu_0SvpAD-25" target="y_pkQ9m9Z_-Nu_0SvpAD-44" edge="1">
          <mxGeometry relative="1" as="geometry">
            <mxPoint x="-870" y="551" as="targetPoint" />
          </mxGeometry>
        </mxCell>
        <mxCell id="y_pkQ9m9Z_-Nu_0SvpAD-25" value="Buscar productos" style="ellipse;whiteSpace=wrap;html=1;align=center;" parent="1" vertex="1">
          <mxGeometry x="-830" y="580" width="100" height="40" as="geometry" />
        </mxCell>
        <mxCell id="y_pkQ9m9Z_-Nu_0SvpAD-26" style="edgeStyle=orthogonalEdgeStyle;curved=1;orthogonalLoop=1;jettySize=auto;html=1;exitX=0.5;exitY=1;exitDx=0;exitDy=0;entryX=0.5;entryY=0;entryDx=0;entryDy=0;" parent="1" source="y_pkQ9m9Z_-Nu_0SvpAD-27" target="y_pkQ9m9Z_-Nu_0SvpAD-32" edge="1">
          <mxGeometry relative="1" as="geometry" />
        </mxCell>
        <mxCell id="y_pkQ9m9Z_-Nu_0SvpAD-27" value="Ver producto" style="ellipse;whiteSpace=wrap;html=1;align=center;" parent="1" vertex="1">
          <mxGeometry x="-940" y="660" width="100" height="40" as="geometry" />
        </mxCell>
        <mxCell id="y_pkQ9m9Z_-Nu_0SvpAD-28" style="edgeStyle=orthogonalEdgeStyle;curved=1;orthogonalLoop=1;jettySize=auto;html=1;exitX=0.5;exitY=1;exitDx=0;exitDy=0;entryX=0.5;entryY=1;entryDx=0;entryDy=0;" parent="1" source="y_pkQ9m9Z_-Nu_0SvpAD-32" target="y_pkQ9m9Z_-Nu_0SvpAD-34" edge="1">
          <mxGeometry relative="1" as="geometry" />
        </mxCell>
        <mxCell id="y_pkQ9m9Z_-Nu_0SvpAD-29" style="edgeStyle=orthogonalEdgeStyle;curved=1;orthogonalLoop=1;jettySize=auto;html=1;exitX=0.5;exitY=1;exitDx=0;exitDy=0;entryX=0.5;entryY=1;entryDx=0;entryDy=0;" parent="1" source="y_pkQ9m9Z_-Nu_0SvpAD-32" target="y_pkQ9m9Z_-Nu_0SvpAD-33" edge="1">
          <mxGeometry relative="1" as="geometry" />
        </mxCell>
        <mxCell id="y_pkQ9m9Z_-Nu_0SvpAD-31" style="edgeStyle=orthogonalEdgeStyle;curved=1;orthogonalLoop=1;jettySize=auto;html=1;exitX=0.5;exitY=1;exitDx=0;exitDy=0;entryX=0;entryY=0.5;entryDx=0;entryDy=0;" parent="1" source="y_pkQ9m9Z_-Nu_0SvpAD-32" target="y_pkQ9m9Z_-Nu_0SvpAD-49" edge="1">
          <mxGeometry relative="1" as="geometry" />
        </mxCell>
        <mxCell id="y_pkQ9m9Z_-Nu_0SvpAD-32" value="Editar producto" style="ellipse;whiteSpace=wrap;html=1;align=center;" parent="1" vertex="1">
          <mxGeometry x="-940" y="740" width="100" height="40" as="geometry" />
        </mxCell>
        <mxCell id="y_pkQ9m9Z_-Nu_0SvpAD-33" value="Modificar stock" style="ellipse;whiteSpace=wrap;html=1;align=center;" parent="1" vertex="1">
          <mxGeometry x="-1080" y="740" width="100" height="40" as="geometry" />
        </mxCell>
        <mxCell id="y_pkQ9m9Z_-Nu_0SvpAD-34" value="Añadir stock" style="ellipse;whiteSpace=wrap;html=1;align=center;" parent="1" vertex="1">
          <mxGeometry x="-800" y="740" width="100" height="40" as="geometry" />
        </mxCell>
        <mxCell id="y_pkQ9m9Z_-Nu_0SvpAD-35" style="edgeStyle=orthogonalEdgeStyle;curved=1;orthogonalLoop=1;jettySize=auto;html=1;exitX=0.5;exitY=0;exitDx=0;exitDy=0;entryX=0.5;entryY=1;entryDx=0;entryDy=0;" parent="1" source="y_pkQ9m9Z_-Nu_0SvpAD-38" target="y_pkQ9m9Z_-Nu_0SvpAD-39" edge="1">
          <mxGeometry relative="1" as="geometry" />
        </mxCell>
        <mxCell id="y_pkQ9m9Z_-Nu_0SvpAD-36" style="edgeStyle=orthogonalEdgeStyle;curved=1;orthogonalLoop=1;jettySize=auto;html=1;exitX=0.5;exitY=0;exitDx=0;exitDy=0;entryX=0.5;entryY=1;entryDx=0;entryDy=0;" parent="1" source="y_pkQ9m9Z_-Nu_0SvpAD-38" target="y_pkQ9m9Z_-Nu_0SvpAD-40" edge="1">
          <mxGeometry relative="1" as="geometry" />
        </mxCell>
        <mxCell id="y_pkQ9m9Z_-Nu_0SvpAD-37" style="edgeStyle=orthogonalEdgeStyle;curved=1;orthogonalLoop=1;jettySize=auto;html=1;exitX=1;exitY=0.5;exitDx=0;exitDy=0;entryX=0.5;entryY=0;entryDx=0;entryDy=0;" parent="1" source="y_pkQ9m9Z_-Nu_0SvpAD-38" target="y_pkQ9m9Z_-Nu_0SvpAD-69" edge="1">
          <mxGeometry relative="1" as="geometry" />
        </mxCell>
        <mxCell id="y_pkQ9m9Z_-Nu_0SvpAD-38" value="Crear albarán" style="ellipse;whiteSpace=wrap;html=1;align=center;" parent="1" vertex="1">
          <mxGeometry x="-570" y="260" width="100" height="40" as="geometry" />
        </mxCell>
        <mxCell id="y_pkQ9m9Z_-Nu_0SvpAD-39" value="Añadir Noteline" style="ellipse;whiteSpace=wrap;html=1;align=center;" parent="1" vertex="1">
          <mxGeometry x="-630" y="180" width="100" height="40" as="geometry" />
        </mxCell>
        <mxCell id="y_pkQ9m9Z_-Nu_0SvpAD-40" value="Añadir comentario" style="ellipse;whiteSpace=wrap;html=1;align=center;" parent="1" vertex="1">
          <mxGeometry x="-510" y="180" width="100" height="40" as="geometry" />
        </mxCell>
        <mxCell id="y_pkQ9m9Z_-Nu_0SvpAD-41" style="edgeStyle=orthogonalEdgeStyle;curved=1;orthogonalLoop=1;jettySize=auto;html=1;exitX=0.5;exitY=1;exitDx=0;exitDy=0;entryX=0.5;entryY=0;entryDx=0;entryDy=0;" parent="1" source="y_pkQ9m9Z_-Nu_0SvpAD-43" target="y_pkQ9m9Z_-Nu_0SvpAD-27" edge="1">
          <mxGeometry relative="1" as="geometry" />
        </mxCell>
        <mxCell id="y_pkQ9m9Z_-Nu_0SvpAD-42" style="edgeStyle=orthogonalEdgeStyle;curved=1;orthogonalLoop=1;jettySize=auto;html=1;exitX=1;exitY=0.5;exitDx=0;exitDy=0;entryX=0.5;entryY=1;entryDx=0;entryDy=0;" parent="1" source="y_pkQ9m9Z_-Nu_0SvpAD-43" target="y_pkQ9m9Z_-Nu_0SvpAD-44" edge="1">
          <mxGeometry relative="1" as="geometry" />
        </mxCell>
        <mxCell id="y_pkQ9m9Z_-Nu_0SvpAD-43" value="Ver lista productos" style="ellipse;whiteSpace=wrap;html=1;align=center;" parent="1" vertex="1">
          <mxGeometry x="-1060" y="580" width="100" height="40" as="geometry" />
        </mxCell>
        <mxCell id="y_pkQ9m9Z_-Nu_0SvpAD-44" value="Filtrar productos" style="ellipse;whiteSpace=wrap;html=1;align=center;" parent="1" vertex="1">
          <mxGeometry x="-940" y="520" width="100" height="40" as="geometry" />
        </mxCell>
        <mxCell id="y_pkQ9m9Z_-Nu_0SvpAD-45" style="edgeStyle=orthogonalEdgeStyle;curved=1;orthogonalLoop=1;jettySize=auto;html=1;exitX=0.5;exitY=1;exitDx=0;exitDy=0;entryX=1;entryY=0.5;entryDx=0;entryDy=0;" parent="1" source="y_pkQ9m9Z_-Nu_0SvpAD-46" target="y_pkQ9m9Z_-Nu_0SvpAD-27" edge="1">
          <mxGeometry relative="1" as="geometry" />
        </mxCell>
        <mxCell id="y_pkQ9m9Z_-Nu_0SvpAD-46" value="Añadir producto" style="ellipse;whiteSpace=wrap;html=1;align=center;" parent="1" vertex="1">
          <mxGeometry x="-690" y="580" width="100" height="40" as="geometry" />
        </mxCell>
        <mxCell id="y_pkQ9m9Z_-Nu_0SvpAD-49" value="Modificar datos producto" style="ellipse;whiteSpace=wrap;html=1;align=center;" parent="1" vertex="1">
          <mxGeometry x="-850" y="840" width="100" height="40" as="geometry" />
        </mxCell>
        <mxCell id="y_pkQ9m9Z_-Nu_0SvpAD-50" style="edgeStyle=orthogonalEdgeStyle;curved=1;orthogonalLoop=1;jettySize=auto;html=1;exitX=0;exitY=0.5;exitDx=0;exitDy=0;entryX=0.5;entryY=1;entryDx=0;entryDy=0;" parent="1" source="y_pkQ9m9Z_-Nu_0SvpAD-52" target="y_pkQ9m9Z_-Nu_0SvpAD-59" edge="1">
          <mxGeometry relative="1" as="geometry" />
        </mxCell>
        <mxCell id="y_pkQ9m9Z_-Nu_0SvpAD-51" style="edgeStyle=orthogonalEdgeStyle;curved=1;orthogonalLoop=1;jettySize=auto;html=1;exitX=0.5;exitY=0;exitDx=0;exitDy=0;entryX=0.5;entryY=1;entryDx=0;entryDy=0;" parent="1" source="y_pkQ9m9Z_-Nu_0SvpAD-52" target="y_pkQ9m9Z_-Nu_0SvpAD-60" edge="1">
          <mxGeometry relative="1" as="geometry" />
        </mxCell>
        <mxCell id="y_pkQ9m9Z_-Nu_0SvpAD-52" value="Ver lista clientes" style="ellipse;whiteSpace=wrap;html=1;align=center;" parent="1" vertex="1">
          <mxGeometry x="-1070" y="470" width="100" height="40" as="geometry" />
        </mxCell>
        <mxCell id="y_pkQ9m9Z_-Nu_0SvpAD-53" style="edgeStyle=orthogonalEdgeStyle;curved=1;orthogonalLoop=1;jettySize=auto;html=1;exitX=0;exitY=0.5;exitDx=0;exitDy=0;entryX=0.5;entryY=0;entryDx=0;entryDy=0;" parent="1" source="y_pkQ9m9Z_-Nu_0SvpAD-54" target="y_pkQ9m9Z_-Nu_0SvpAD-59" edge="1">
          <mxGeometry relative="1" as="geometry" />
        </mxCell>
        <mxCell id="y_pkQ9m9Z_-Nu_0SvpAD-54" value="Crear cliente" style="ellipse;whiteSpace=wrap;html=1;align=center;" parent="1" vertex="1">
          <mxGeometry x="-1070" y="260" width="100" height="40" as="geometry" />
        </mxCell>
        <mxCell id="y_pkQ9m9Z_-Nu_0SvpAD-55" style="edgeStyle=orthogonalEdgeStyle;curved=1;orthogonalLoop=1;jettySize=auto;html=1;exitX=0;exitY=0.5;exitDx=0;exitDy=0;entryX=1;entryY=0.5;entryDx=0;entryDy=0;" parent="1" source="y_pkQ9m9Z_-Nu_0SvpAD-57" target="y_pkQ9m9Z_-Nu_0SvpAD-59" edge="1">
          <mxGeometry relative="1" as="geometry" />
        </mxCell>
        <mxCell id="y_pkQ9m9Z_-Nu_0SvpAD-56" style="edgeStyle=orthogonalEdgeStyle;curved=1;orthogonalLoop=1;jettySize=auto;html=1;exitX=0.5;exitY=1;exitDx=0;exitDy=0;entryX=0.5;entryY=0;entryDx=0;entryDy=0;" parent="1" source="y_pkQ9m9Z_-Nu_0SvpAD-57" target="y_pkQ9m9Z_-Nu_0SvpAD-60" edge="1">
          <mxGeometry relative="1" as="geometry" />
        </mxCell>
        <mxCell id="y_pkQ9m9Z_-Nu_0SvpAD-57" value="Buscar cliente" style="ellipse;whiteSpace=wrap;html=1;align=center;" parent="1" vertex="1">
          <mxGeometry x="-1070" y="320" width="100" height="40" as="geometry" />
        </mxCell>
        <mxCell id="y_pkQ9m9Z_-Nu_0SvpAD-58" style="edgeStyle=orthogonalEdgeStyle;curved=1;orthogonalLoop=1;jettySize=auto;html=1;exitX=0;exitY=0.5;exitDx=0;exitDy=0;entryX=1;entryY=0.5;entryDx=0;entryDy=0;" parent="1" source="y_pkQ9m9Z_-Nu_0SvpAD-59" target="y_pkQ9m9Z_-Nu_0SvpAD-61" edge="1">
          <mxGeometry relative="1" as="geometry" />
        </mxCell>
        <mxCell id="y_pkQ9m9Z_-Nu_0SvpAD-59" value="Ver cliente" style="ellipse;whiteSpace=wrap;html=1;align=center;" parent="1" vertex="1">
          <mxGeometry x="-1250" y="360" width="100" height="40" as="geometry" />
        </mxCell>
        <mxCell id="y_pkQ9m9Z_-Nu_0SvpAD-60" value="Filtrar clientes" style="ellipse;whiteSpace=wrap;html=1;align=center;" parent="1" vertex="1">
          <mxGeometry x="-1140" y="395" width="100" height="40" as="geometry" />
        </mxCell>
        <mxCell id="y_pkQ9m9Z_-Nu_0SvpAD-61" value="Editar cliente" style="ellipse;whiteSpace=wrap;html=1;align=center;" parent="1" vertex="1">
          <mxGeometry x="-1390" y="360" width="100" height="40" as="geometry" />
        </mxCell>
        <mxCell id="y_pkQ9m9Z_-Nu_0SvpAD-62" style="edgeStyle=orthogonalEdgeStyle;curved=1;orthogonalLoop=1;jettySize=auto;html=1;exitX=0.5;exitY=1;exitDx=0;exitDy=0;entryX=0;entryY=0.5;entryDx=0;entryDy=0;" parent="1" source="y_pkQ9m9Z_-Nu_0SvpAD-64" target="y_pkQ9m9Z_-Nu_0SvpAD-68" edge="1">
          <mxGeometry relative="1" as="geometry" />
        </mxCell>
        <mxCell id="y_pkQ9m9Z_-Nu_0SvpAD-63" style="edgeStyle=orthogonalEdgeStyle;curved=1;orthogonalLoop=1;jettySize=auto;html=1;exitX=1;exitY=0.5;exitDx=0;exitDy=0;entryX=0;entryY=0.5;entryDx=0;entryDy=0;" parent="1" source="y_pkQ9m9Z_-Nu_0SvpAD-64" target="y_pkQ9m9Z_-Nu_0SvpAD-69" edge="1">
          <mxGeometry relative="1" as="geometry" />
        </mxCell>
        <mxCell id="y_pkQ9m9Z_-Nu_0SvpAD-64" value="Buscar albarán" style="ellipse;whiteSpace=wrap;html=1;align=center;" parent="1" vertex="1">
          <mxGeometry x="-570" y="310" width="100" height="40" as="geometry" />
        </mxCell>
        <mxCell id="y_pkQ9m9Z_-Nu_0SvpAD-65" style="edgeStyle=orthogonalEdgeStyle;curved=1;orthogonalLoop=1;jettySize=auto;html=1;exitX=0.5;exitY=0;exitDx=0;exitDy=0;" parent="1" source="y_pkQ9m9Z_-Nu_0SvpAD-67" edge="1">
          <mxGeometry relative="1" as="geometry">
            <mxPoint x="-470" y="380" as="targetPoint" />
            <Array as="points">
              <mxPoint x="-520" y="380" />
            </Array>
          </mxGeometry>
        </mxCell>
        <mxCell id="y_pkQ9m9Z_-Nu_0SvpAD-66" style="edgeStyle=orthogonalEdgeStyle;curved=1;orthogonalLoop=1;jettySize=auto;html=1;exitX=1;exitY=0.5;exitDx=0;exitDy=0;entryX=0.5;entryY=1;entryDx=0;entryDy=0;" parent="1" source="y_pkQ9m9Z_-Nu_0SvpAD-67" target="y_pkQ9m9Z_-Nu_0SvpAD-69" edge="1">
          <mxGeometry relative="1" as="geometry" />
        </mxCell>
        <mxCell id="y_pkQ9m9Z_-Nu_0SvpAD-67" value="Ver lista albaranes" style="ellipse;whiteSpace=wrap;html=1;align=center;" parent="1" vertex="1">
          <mxGeometry x="-570" y="410" width="100" height="40" as="geometry" />
        </mxCell>
        <mxCell id="y_pkQ9m9Z_-Nu_0SvpAD-68" value="Filtrar albaranes" style="ellipse;whiteSpace=wrap;html=1;align=center;" parent="1" vertex="1">
          <mxGeometry x="-470" y="360" width="100" height="40" as="geometry" />
        </mxCell>
        <mxCell id="y_pkQ9m9Z_-Nu_0SvpAD-69" value="Ver albarán" style="ellipse;whiteSpace=wrap;html=1;align=center;" parent="1" vertex="1">
          <mxGeometry x="-350" y="330" width="100" height="40" as="geometry" />
        </mxCell>
        <mxCell id="y_pkQ9m9Z_-Nu_0SvpAD-161" style="edgeStyle=orthogonalEdgeStyle;rounded=0;orthogonalLoop=1;jettySize=auto;html=1;exitX=1;exitY=0;exitDx=0;exitDy=0;entryX=0;entryY=0.5;entryDx=0;entryDy=0;curved=1;" parent="1" source="y_pkQ9m9Z_-Nu_0SvpAD-70" target="y_pkQ9m9Z_-Nu_0SvpAD-160" edge="1">
          <mxGeometry relative="1" as="geometry" />
        </mxCell>
        <mxCell id="y_pkQ9m9Z_-Nu_0SvpAD-163" style="edgeStyle=orthogonalEdgeStyle;rounded=0;orthogonalLoop=1;jettySize=auto;html=1;exitX=1;exitY=1;exitDx=0;exitDy=0;entryX=0;entryY=0.5;entryDx=0;entryDy=0;curved=1;" parent="1" source="y_pkQ9m9Z_-Nu_0SvpAD-70" target="y_pkQ9m9Z_-Nu_0SvpAD-159" edge="1">
          <mxGeometry relative="1" as="geometry">
            <mxPoint x="-350" y="560" as="targetPoint" />
          </mxGeometry>
        </mxCell>
        <mxCell id="y_pkQ9m9Z_-Nu_0SvpAD-70" value="Crear factura" style="ellipse;whiteSpace=wrap;html=1;align=center;" parent="1" vertex="1">
          <mxGeometry x="-490" y="470" width="100" height="40" as="geometry" />
        </mxCell>
        <mxCell id="y_pkQ9m9Z_-Nu_0SvpAD-76" style="edgeStyle=orthogonalEdgeStyle;curved=1;orthogonalLoop=1;jettySize=auto;html=1;entryX=0;entryY=0.5;entryDx=0;entryDy=0;" parent="1" target="y_pkQ9m9Z_-Nu_0SvpAD-114" edge="1">
          <mxGeometry relative="1" as="geometry">
            <mxPoint x="1470" y="400" as="sourcePoint" />
          </mxGeometry>
        </mxCell>
        <mxCell id="y_pkQ9m9Z_-Nu_0SvpAD-77" style="edgeStyle=orthogonalEdgeStyle;curved=1;orthogonalLoop=1;jettySize=auto;html=1;entryX=0.5;entryY=1;entryDx=0;entryDy=0;exitX=0.75;exitY=0.1;exitDx=0;exitDy=0;exitPerimeter=0;" parent="1" source="y_pkQ9m9Z_-Nu_0SvpAD-91" target="y_pkQ9m9Z_-Nu_0SvpAD-93" edge="1">
          <mxGeometry relative="1" as="geometry">
            <mxPoint x="1470" y="380" as="sourcePoint" />
          </mxGeometry>
        </mxCell>
        <mxCell id="y_pkQ9m9Z_-Nu_0SvpAD-78" style="edgeStyle=orthogonalEdgeStyle;curved=1;orthogonalLoop=1;jettySize=auto;html=1;entryX=0.5;entryY=0;entryDx=0;entryDy=0;" parent="1" target="y_pkQ9m9Z_-Nu_0SvpAD-119" edge="1">
          <mxGeometry relative="1" as="geometry">
            <mxPoint x="1430" y="460" as="sourcePoint" />
            <Array as="points">
              <mxPoint x="1430" y="490" />
              <mxPoint x="1220" y="490" />
            </Array>
          </mxGeometry>
        </mxCell>
        <mxCell id="y_pkQ9m9Z_-Nu_0SvpAD-79" style="edgeStyle=orthogonalEdgeStyle;curved=1;orthogonalLoop=1;jettySize=auto;html=1;" parent="1" target="y_pkQ9m9Z_-Nu_0SvpAD-101" edge="1">
          <mxGeometry relative="1" as="geometry">
            <mxPoint x="1450" y="460" as="sourcePoint" />
          </mxGeometry>
        </mxCell>
        <mxCell id="y_pkQ9m9Z_-Nu_0SvpAD-80" style="edgeStyle=orthogonalEdgeStyle;curved=1;orthogonalLoop=1;jettySize=auto;html=1;entryX=0.5;entryY=0;entryDx=0;entryDy=0;" parent="1" target="y_pkQ9m9Z_-Nu_0SvpAD-122" edge="1">
          <mxGeometry relative="1" as="geometry">
            <mxPoint x="1470" y="460" as="sourcePoint" />
            <Array as="points">
              <mxPoint x="1470" y="520" />
              <mxPoint x="1590" y="520" />
            </Array>
          </mxGeometry>
        </mxCell>
        <mxCell id="y_pkQ9m9Z_-Nu_0SvpAD-81" style="edgeStyle=orthogonalEdgeStyle;curved=1;orthogonalLoop=1;jettySize=auto;html=1;entryX=0.5;entryY=1;entryDx=0;entryDy=0;" parent="1" target="y_pkQ9m9Z_-Nu_0SvpAD-96" edge="1">
          <mxGeometry relative="1" as="geometry">
            <mxPoint x="1440" y="380" as="sourcePoint" />
            <Array as="points">
              <mxPoint x="1360" y="380" />
            </Array>
          </mxGeometry>
        </mxCell>
        <mxCell id="y_pkQ9m9Z_-Nu_0SvpAD-82" style="edgeStyle=orthogonalEdgeStyle;curved=1;orthogonalLoop=1;jettySize=auto;html=1;entryX=1;entryY=0.5;entryDx=0;entryDy=0;" parent="1" target="y_pkQ9m9Z_-Nu_0SvpAD-130" edge="1">
          <mxGeometry relative="1" as="geometry">
            <mxPoint x="1430" y="400" as="sourcePoint" />
          </mxGeometry>
        </mxCell>
        <mxCell id="y_pkQ9m9Z_-Nu_0SvpAD-83" style="edgeStyle=orthogonalEdgeStyle;curved=1;orthogonalLoop=1;jettySize=auto;html=1;entryX=1;entryY=0.5;entryDx=0;entryDy=0;" parent="1" target="y_pkQ9m9Z_-Nu_0SvpAD-133" edge="1">
          <mxGeometry relative="1" as="geometry">
            <mxPoint x="1430" y="410" as="sourcePoint" />
            <Array as="points">
              <mxPoint x="1330" y="410" />
              <mxPoint x="1330" y="330" />
            </Array>
          </mxGeometry>
        </mxCell>
        <mxCell id="y_pkQ9m9Z_-Nu_0SvpAD-84" style="edgeStyle=orthogonalEdgeStyle;curved=1;orthogonalLoop=1;jettySize=auto;html=1;entryX=1;entryY=0.5;entryDx=0;entryDy=0;" parent="1" target="y_pkQ9m9Z_-Nu_0SvpAD-128" edge="1">
          <mxGeometry relative="1" as="geometry">
            <mxPoint x="1430" y="420" as="sourcePoint" />
            <Array as="points">
              <mxPoint x="1330" y="420" />
              <mxPoint x="1330" y="480" />
            </Array>
          </mxGeometry>
        </mxCell>
        <mxCell id="y_pkQ9m9Z_-Nu_0SvpAD-85" style="edgeStyle=orthogonalEdgeStyle;curved=1;orthogonalLoop=1;jettySize=auto;html=1;exitX=0.25;exitY=0.1;exitDx=0;exitDy=0;exitPerimeter=0;entryX=0.5;entryY=1;entryDx=0;entryDy=0;" parent="1" source="y_pkQ9m9Z_-Nu_0SvpAD-91" target="y_pkQ9m9Z_-Nu_0SvpAD-92" edge="1">
          <mxGeometry relative="1" as="geometry">
            <Array as="points">
              <mxPoint x="1420" y="377" />
            </Array>
          </mxGeometry>
        </mxCell>
        <mxCell id="y_pkQ9m9Z_-Nu_0SvpAD-86" style="edgeStyle=orthogonalEdgeStyle;curved=1;orthogonalLoop=1;jettySize=auto;html=1;exitX=0.75;exitY=0.1;exitDx=0;exitDy=0;exitPerimeter=0;entryX=0.5;entryY=1;entryDx=0;entryDy=0;" parent="1" source="y_pkQ9m9Z_-Nu_0SvpAD-91" target="y_pkQ9m9Z_-Nu_0SvpAD-124" edge="1">
          <mxGeometry relative="1" as="geometry">
            <Array as="points">
              <mxPoint x="1480" y="377" />
            </Array>
          </mxGeometry>
        </mxCell>
        <mxCell id="y_pkQ9m9Z_-Nu_0SvpAD-87" style="edgeStyle=orthogonalEdgeStyle;curved=1;orthogonalLoop=1;jettySize=auto;html=1;entryX=0;entryY=0.5;entryDx=0;entryDy=0;" parent="1" target="y_pkQ9m9Z_-Nu_0SvpAD-140" edge="1">
          <mxGeometry relative="1" as="geometry">
            <mxPoint x="1470" y="410" as="sourcePoint" />
            <Array as="points">
              <mxPoint x="1580" y="410" />
              <mxPoint x="1580" y="320" />
            </Array>
          </mxGeometry>
        </mxCell>
        <mxCell id="y_pkQ9m9Z_-Nu_0SvpAD-88" style="edgeStyle=orthogonalEdgeStyle;curved=1;orthogonalLoop=1;jettySize=auto;html=1;entryX=0;entryY=0.5;entryDx=0;entryDy=0;" parent="1" target="y_pkQ9m9Z_-Nu_0SvpAD-143" edge="1">
          <mxGeometry relative="1" as="geometry">
            <mxPoint x="1470" y="420" as="sourcePoint" />
          </mxGeometry>
        </mxCell>
        <mxCell id="y_pkQ9m9Z_-Nu_0SvpAD-89" style="edgeStyle=orthogonalEdgeStyle;rounded=0;orthogonalLoop=1;jettySize=auto;html=1;exitX=1;exitY=1;exitDx=0;exitDy=0;exitPerimeter=0;entryX=0;entryY=0.5;entryDx=0;entryDy=0;curved=1;" parent="1" source="y_pkQ9m9Z_-Nu_0SvpAD-91" target="y_pkQ9m9Z_-Nu_0SvpAD-146" edge="1">
          <mxGeometry relative="1" as="geometry" />
        </mxCell>
        <mxCell id="y_pkQ9m9Z_-Nu_0SvpAD-157" style="edgeStyle=orthogonalEdgeStyle;rounded=0;orthogonalLoop=1;jettySize=auto;html=1;exitX=1;exitY=1;exitDx=0;exitDy=0;exitPerimeter=0;entryX=0;entryY=0.5;entryDx=0;entryDy=0;curved=1;" parent="1" source="y_pkQ9m9Z_-Nu_0SvpAD-91" target="y_pkQ9m9Z_-Nu_0SvpAD-153" edge="1">
          <mxGeometry relative="1" as="geometry">
            <mxPoint x="1610" y="530" as="targetPoint" />
            <Array as="points">
              <mxPoint x="1470" y="510" />
              <mxPoint x="1700" y="510" />
            </Array>
          </mxGeometry>
        </mxCell>
        <mxCell id="y_pkQ9m9Z_-Nu_0SvpAD-91" value="Admin" style="shape=umlActor;verticalLabelPosition=bottom;labelBackgroundColor=none;verticalAlign=top;html=1;outlineConnect=0;" parent="1" vertex="1">
          <mxGeometry x="1430" y="370" width="40" height="70" as="geometry" />
        </mxCell>
        <mxCell id="y_pkQ9m9Z_-Nu_0SvpAD-92" value="Cerrar sesión" style="ellipse;whiteSpace=wrap;html=1;align=center;" parent="1" vertex="1">
          <mxGeometry x="1370" y="250" width="100" height="40" as="geometry" />
        </mxCell>
        <mxCell id="y_pkQ9m9Z_-Nu_0SvpAD-93" value="Cambiar Idioma" style="ellipse;whiteSpace=wrap;html=1;align=center;" parent="1" vertex="1">
          <mxGeometry x="1490" y="250" width="100" height="40" as="geometry" />
        </mxCell>
        <mxCell id="y_pkQ9m9Z_-Nu_0SvpAD-94" style="edgeStyle=orthogonalEdgeStyle;curved=1;orthogonalLoop=1;jettySize=auto;html=1;exitX=0.5;exitY=0;exitDx=0;exitDy=0;entryX=0.5;entryY=1;entryDx=0;entryDy=0;" parent="1" source="y_pkQ9m9Z_-Nu_0SvpAD-96" target="y_pkQ9m9Z_-Nu_0SvpAD-98" edge="1">
          <mxGeometry relative="1" as="geometry" />
        </mxCell>
        <mxCell id="y_pkQ9m9Z_-Nu_0SvpAD-95" style="edgeStyle=orthogonalEdgeStyle;curved=1;orthogonalLoop=1;jettySize=auto;html=1;exitX=0.5;exitY=0;exitDx=0;exitDy=0;entryX=0.5;entryY=1;entryDx=0;entryDy=0;" parent="1" source="y_pkQ9m9Z_-Nu_0SvpAD-96" target="y_pkQ9m9Z_-Nu_0SvpAD-97" edge="1">
          <mxGeometry relative="1" as="geometry" />
        </mxCell>
        <mxCell id="y_pkQ9m9Z_-Nu_0SvpAD-96" value="Ver perfil" style="ellipse;whiteSpace=wrap;html=1;align=center;" parent="1" vertex="1">
          <mxGeometry x="1310" y="190" width="100" height="40" as="geometry" />
        </mxCell>
        <mxCell id="y_pkQ9m9Z_-Nu_0SvpAD-97" value="Modificar contraseña" style="ellipse;whiteSpace=wrap;html=1;align=center;" parent="1" vertex="1">
          <mxGeometry x="1370" y="110" width="100" height="40" as="geometry" />
        </mxCell>
        <mxCell id="y_pkQ9m9Z_-Nu_0SvpAD-98" value="Editar perfil" style="ellipse;whiteSpace=wrap;html=1;align=center;" parent="1" vertex="1">
          <mxGeometry x="1250" y="110" width="100" height="40" as="geometry" />
        </mxCell>
        <mxCell id="y_pkQ9m9Z_-Nu_0SvpAD-99" style="edgeStyle=orthogonalEdgeStyle;curved=1;orthogonalLoop=1;jettySize=auto;html=1;exitX=0.5;exitY=1;exitDx=0;exitDy=0;entryX=0.5;entryY=0;entryDx=0;entryDy=0;" parent="1" source="y_pkQ9m9Z_-Nu_0SvpAD-101" target="y_pkQ9m9Z_-Nu_0SvpAD-103" edge="1">
          <mxGeometry relative="1" as="geometry" />
        </mxCell>
        <mxCell id="y_pkQ9m9Z_-Nu_0SvpAD-100" style="edgeStyle=orthogonalEdgeStyle;curved=1;orthogonalLoop=1;jettySize=auto;html=1;exitX=0;exitY=0.5;exitDx=0;exitDy=0;" parent="1" source="y_pkQ9m9Z_-Nu_0SvpAD-101" target="y_pkQ9m9Z_-Nu_0SvpAD-120" edge="1">
          <mxGeometry relative="1" as="geometry">
            <mxPoint x="1360" y="541" as="targetPoint" />
          </mxGeometry>
        </mxCell>
        <mxCell id="y_pkQ9m9Z_-Nu_0SvpAD-101" value="Buscar productos" style="ellipse;whiteSpace=wrap;html=1;align=center;" parent="1" vertex="1">
          <mxGeometry x="1400" y="570" width="100" height="40" as="geometry" />
        </mxCell>
        <mxCell id="y_pkQ9m9Z_-Nu_0SvpAD-102" style="edgeStyle=orthogonalEdgeStyle;curved=1;orthogonalLoop=1;jettySize=auto;html=1;exitX=0.5;exitY=1;exitDx=0;exitDy=0;entryX=0.5;entryY=0;entryDx=0;entryDy=0;" parent="1" source="y_pkQ9m9Z_-Nu_0SvpAD-103" target="y_pkQ9m9Z_-Nu_0SvpAD-108" edge="1">
          <mxGeometry relative="1" as="geometry" />
        </mxCell>
        <mxCell id="y_pkQ9m9Z_-Nu_0SvpAD-103" value="Ver producto" style="ellipse;whiteSpace=wrap;html=1;align=center;" parent="1" vertex="1">
          <mxGeometry x="1290" y="650" width="100" height="40" as="geometry" />
        </mxCell>
        <mxCell id="y_pkQ9m9Z_-Nu_0SvpAD-104" style="edgeStyle=orthogonalEdgeStyle;curved=1;orthogonalLoop=1;jettySize=auto;html=1;exitX=0.5;exitY=1;exitDx=0;exitDy=0;entryX=0.5;entryY=1;entryDx=0;entryDy=0;" parent="1" source="y_pkQ9m9Z_-Nu_0SvpAD-108" target="y_pkQ9m9Z_-Nu_0SvpAD-110" edge="1">
          <mxGeometry relative="1" as="geometry" />
        </mxCell>
        <mxCell id="y_pkQ9m9Z_-Nu_0SvpAD-105" style="edgeStyle=orthogonalEdgeStyle;curved=1;orthogonalLoop=1;jettySize=auto;html=1;exitX=0.5;exitY=1;exitDx=0;exitDy=0;entryX=0.5;entryY=1;entryDx=0;entryDy=0;" parent="1" source="y_pkQ9m9Z_-Nu_0SvpAD-108" target="y_pkQ9m9Z_-Nu_0SvpAD-109" edge="1">
          <mxGeometry relative="1" as="geometry" />
        </mxCell>
        <mxCell id="y_pkQ9m9Z_-Nu_0SvpAD-106" style="edgeStyle=orthogonalEdgeStyle;curved=1;orthogonalLoop=1;jettySize=auto;html=1;exitX=0.5;exitY=1;exitDx=0;exitDy=0;entryX=1;entryY=0.5;entryDx=0;entryDy=0;" parent="1" source="y_pkQ9m9Z_-Nu_0SvpAD-108" target="y_pkQ9m9Z_-Nu_0SvpAD-123" edge="1">
          <mxGeometry relative="1" as="geometry" />
        </mxCell>
        <mxCell id="y_pkQ9m9Z_-Nu_0SvpAD-107" style="edgeStyle=orthogonalEdgeStyle;curved=1;orthogonalLoop=1;jettySize=auto;html=1;exitX=0.5;exitY=1;exitDx=0;exitDy=0;entryX=0;entryY=0.5;entryDx=0;entryDy=0;" parent="1" source="y_pkQ9m9Z_-Nu_0SvpAD-108" target="y_pkQ9m9Z_-Nu_0SvpAD-125" edge="1">
          <mxGeometry relative="1" as="geometry" />
        </mxCell>
        <mxCell id="y_pkQ9m9Z_-Nu_0SvpAD-108" value="Editar producto" style="ellipse;whiteSpace=wrap;html=1;align=center;" parent="1" vertex="1">
          <mxGeometry x="1290" y="730" width="100" height="40" as="geometry" />
        </mxCell>
        <mxCell id="y_pkQ9m9Z_-Nu_0SvpAD-109" value="Modificar stock" style="ellipse;whiteSpace=wrap;html=1;align=center;" parent="1" vertex="1">
          <mxGeometry x="1150" y="730" width="100" height="40" as="geometry" />
        </mxCell>
        <mxCell id="y_pkQ9m9Z_-Nu_0SvpAD-110" value="Añadir stock" style="ellipse;whiteSpace=wrap;html=1;align=center;" parent="1" vertex="1">
          <mxGeometry x="1430" y="730" width="100" height="40" as="geometry" />
        </mxCell>
        <mxCell id="y_pkQ9m9Z_-Nu_0SvpAD-111" style="edgeStyle=orthogonalEdgeStyle;curved=1;orthogonalLoop=1;jettySize=auto;html=1;exitX=0.5;exitY=0;exitDx=0;exitDy=0;entryX=0.5;entryY=1;entryDx=0;entryDy=0;" parent="1" source="y_pkQ9m9Z_-Nu_0SvpAD-114" target="y_pkQ9m9Z_-Nu_0SvpAD-115" edge="1">
          <mxGeometry relative="1" as="geometry" />
        </mxCell>
        <mxCell id="y_pkQ9m9Z_-Nu_0SvpAD-112" style="edgeStyle=orthogonalEdgeStyle;curved=1;orthogonalLoop=1;jettySize=auto;html=1;exitX=0.5;exitY=0;exitDx=0;exitDy=0;entryX=0.5;entryY=1;entryDx=0;entryDy=0;" parent="1" source="y_pkQ9m9Z_-Nu_0SvpAD-114" target="y_pkQ9m9Z_-Nu_0SvpAD-116" edge="1">
          <mxGeometry relative="1" as="geometry" />
        </mxCell>
        <mxCell id="y_pkQ9m9Z_-Nu_0SvpAD-113" style="edgeStyle=orthogonalEdgeStyle;curved=1;orthogonalLoop=1;jettySize=auto;html=1;exitX=1;exitY=0.5;exitDx=0;exitDy=0;entryX=0.5;entryY=0;entryDx=0;entryDy=0;" parent="1" source="y_pkQ9m9Z_-Nu_0SvpAD-114" target="y_pkQ9m9Z_-Nu_0SvpAD-145" edge="1">
          <mxGeometry relative="1" as="geometry" />
        </mxCell>
        <mxCell id="y_pkQ9m9Z_-Nu_0SvpAD-114" value="Crear albarán" style="ellipse;whiteSpace=wrap;html=1;align=center;" parent="1" vertex="1">
          <mxGeometry x="1660" y="250" width="100" height="40" as="geometry" />
        </mxCell>
        <mxCell id="y_pkQ9m9Z_-Nu_0SvpAD-115" value="Añadir Noteline" style="ellipse;whiteSpace=wrap;html=1;align=center;" parent="1" vertex="1">
          <mxGeometry x="1600" y="170" width="100" height="40" as="geometry" />
        </mxCell>
        <mxCell id="y_pkQ9m9Z_-Nu_0SvpAD-116" value="Añadir comentario" style="ellipse;whiteSpace=wrap;html=1;align=center;" parent="1" vertex="1">
          <mxGeometry x="1720" y="170" width="100" height="40" as="geometry" />
        </mxCell>
        <mxCell id="y_pkQ9m9Z_-Nu_0SvpAD-117" style="edgeStyle=orthogonalEdgeStyle;curved=1;orthogonalLoop=1;jettySize=auto;html=1;exitX=0.5;exitY=1;exitDx=0;exitDy=0;entryX=0.5;entryY=0;entryDx=0;entryDy=0;" parent="1" source="y_pkQ9m9Z_-Nu_0SvpAD-119" target="y_pkQ9m9Z_-Nu_0SvpAD-103" edge="1">
          <mxGeometry relative="1" as="geometry" />
        </mxCell>
        <mxCell id="y_pkQ9m9Z_-Nu_0SvpAD-118" style="edgeStyle=orthogonalEdgeStyle;curved=1;orthogonalLoop=1;jettySize=auto;html=1;exitX=1;exitY=0.5;exitDx=0;exitDy=0;entryX=0.5;entryY=1;entryDx=0;entryDy=0;" parent="1" source="y_pkQ9m9Z_-Nu_0SvpAD-119" target="y_pkQ9m9Z_-Nu_0SvpAD-120" edge="1">
          <mxGeometry relative="1" as="geometry" />
        </mxCell>
        <mxCell id="y_pkQ9m9Z_-Nu_0SvpAD-119" value="Ver lista productos" style="ellipse;whiteSpace=wrap;html=1;align=center;" parent="1" vertex="1">
          <mxGeometry x="1170" y="570" width="100" height="40" as="geometry" />
        </mxCell>
        <mxCell id="y_pkQ9m9Z_-Nu_0SvpAD-120" value="Filtrar productos" style="ellipse;whiteSpace=wrap;html=1;align=center;" parent="1" vertex="1">
          <mxGeometry x="1290" y="510" width="100" height="40" as="geometry" />
        </mxCell>
        <mxCell id="y_pkQ9m9Z_-Nu_0SvpAD-121" style="edgeStyle=orthogonalEdgeStyle;curved=1;orthogonalLoop=1;jettySize=auto;html=1;exitX=0.5;exitY=1;exitDx=0;exitDy=0;entryX=1;entryY=0.5;entryDx=0;entryDy=0;" parent="1" source="y_pkQ9m9Z_-Nu_0SvpAD-122" target="y_pkQ9m9Z_-Nu_0SvpAD-103" edge="1">
          <mxGeometry relative="1" as="geometry" />
        </mxCell>
        <mxCell id="y_pkQ9m9Z_-Nu_0SvpAD-122" value="Añadir producto" style="ellipse;whiteSpace=wrap;html=1;align=center;" parent="1" vertex="1">
          <mxGeometry x="1540" y="570" width="100" height="40" as="geometry" />
        </mxCell>
        <mxCell id="y_pkQ9m9Z_-Nu_0SvpAD-123" value="Descatalogar producto" style="ellipse;whiteSpace=wrap;html=1;align=center;" parent="1" vertex="1">
          <mxGeometry x="1200" y="830" width="100" height="40" as="geometry" />
        </mxCell>
        <mxCell id="y_pkQ9m9Z_-Nu_0SvpAD-124" value="Modificar datos empresa" style="ellipse;whiteSpace=wrap;html=1;align=center;" parent="1" vertex="1">
          <mxGeometry x="1430" y="190" width="100" height="40" as="geometry" />
        </mxCell>
        <mxCell id="y_pkQ9m9Z_-Nu_0SvpAD-125" value="Modificar datos producto" style="ellipse;whiteSpace=wrap;html=1;align=center;" parent="1" vertex="1">
          <mxGeometry x="1380" y="830" width="100" height="40" as="geometry" />
        </mxCell>
        <mxCell id="y_pkQ9m9Z_-Nu_0SvpAD-126" style="edgeStyle=orthogonalEdgeStyle;curved=1;orthogonalLoop=1;jettySize=auto;html=1;exitX=0;exitY=0.5;exitDx=0;exitDy=0;entryX=0.5;entryY=1;entryDx=0;entryDy=0;" parent="1" source="y_pkQ9m9Z_-Nu_0SvpAD-128" target="y_pkQ9m9Z_-Nu_0SvpAD-135" edge="1">
          <mxGeometry relative="1" as="geometry" />
        </mxCell>
        <mxCell id="y_pkQ9m9Z_-Nu_0SvpAD-127" style="edgeStyle=orthogonalEdgeStyle;curved=1;orthogonalLoop=1;jettySize=auto;html=1;exitX=0.5;exitY=0;exitDx=0;exitDy=0;entryX=0.5;entryY=1;entryDx=0;entryDy=0;" parent="1" source="y_pkQ9m9Z_-Nu_0SvpAD-128" target="y_pkQ9m9Z_-Nu_0SvpAD-136" edge="1">
          <mxGeometry relative="1" as="geometry" />
        </mxCell>
        <mxCell id="y_pkQ9m9Z_-Nu_0SvpAD-128" value="Ver lista clientes" style="ellipse;whiteSpace=wrap;html=1;align=center;" parent="1" vertex="1">
          <mxGeometry x="1160" y="460" width="100" height="40" as="geometry" />
        </mxCell>
        <mxCell id="y_pkQ9m9Z_-Nu_0SvpAD-129" style="edgeStyle=orthogonalEdgeStyle;curved=1;orthogonalLoop=1;jettySize=auto;html=1;exitX=0;exitY=0.5;exitDx=0;exitDy=0;entryX=0.5;entryY=0;entryDx=0;entryDy=0;" parent="1" source="y_pkQ9m9Z_-Nu_0SvpAD-130" target="y_pkQ9m9Z_-Nu_0SvpAD-135" edge="1">
          <mxGeometry relative="1" as="geometry" />
        </mxCell>
        <mxCell id="y_pkQ9m9Z_-Nu_0SvpAD-130" value="Crear cliente" style="ellipse;whiteSpace=wrap;html=1;align=center;" parent="1" vertex="1">
          <mxGeometry x="1160" y="250" width="100" height="40" as="geometry" />
        </mxCell>
        <mxCell id="y_pkQ9m9Z_-Nu_0SvpAD-131" style="edgeStyle=orthogonalEdgeStyle;curved=1;orthogonalLoop=1;jettySize=auto;html=1;exitX=0;exitY=0.5;exitDx=0;exitDy=0;entryX=1;entryY=0.5;entryDx=0;entryDy=0;" parent="1" source="y_pkQ9m9Z_-Nu_0SvpAD-133" target="y_pkQ9m9Z_-Nu_0SvpAD-135" edge="1">
          <mxGeometry relative="1" as="geometry" />
        </mxCell>
        <mxCell id="y_pkQ9m9Z_-Nu_0SvpAD-132" style="edgeStyle=orthogonalEdgeStyle;curved=1;orthogonalLoop=1;jettySize=auto;html=1;exitX=0.5;exitY=1;exitDx=0;exitDy=0;entryX=0.5;entryY=0;entryDx=0;entryDy=0;" parent="1" source="y_pkQ9m9Z_-Nu_0SvpAD-133" target="y_pkQ9m9Z_-Nu_0SvpAD-136" edge="1">
          <mxGeometry relative="1" as="geometry" />
        </mxCell>
        <mxCell id="y_pkQ9m9Z_-Nu_0SvpAD-133" value="Buscar cliente" style="ellipse;whiteSpace=wrap;html=1;align=center;" parent="1" vertex="1">
          <mxGeometry x="1160" y="310" width="100" height="40" as="geometry" />
        </mxCell>
        <mxCell id="y_pkQ9m9Z_-Nu_0SvpAD-134" style="edgeStyle=orthogonalEdgeStyle;curved=1;orthogonalLoop=1;jettySize=auto;html=1;exitX=0;exitY=0.5;exitDx=0;exitDy=0;entryX=1;entryY=0.5;entryDx=0;entryDy=0;" parent="1" source="y_pkQ9m9Z_-Nu_0SvpAD-135" target="y_pkQ9m9Z_-Nu_0SvpAD-137" edge="1">
          <mxGeometry relative="1" as="geometry" />
        </mxCell>
        <mxCell id="y_pkQ9m9Z_-Nu_0SvpAD-135" value="Ver cliente" style="ellipse;whiteSpace=wrap;html=1;align=center;" parent="1" vertex="1">
          <mxGeometry x="980" y="350" width="100" height="40" as="geometry" />
        </mxCell>
        <mxCell id="y_pkQ9m9Z_-Nu_0SvpAD-136" value="Filtrar clientes" style="ellipse;whiteSpace=wrap;html=1;align=center;" parent="1" vertex="1">
          <mxGeometry x="1090" y="385" width="100" height="40" as="geometry" />
        </mxCell>
        <mxCell id="y_pkQ9m9Z_-Nu_0SvpAD-137" value="Editar cliente" style="ellipse;whiteSpace=wrap;html=1;align=center;" parent="1" vertex="1">
          <mxGeometry x="840" y="350" width="100" height="40" as="geometry" />
        </mxCell>
        <mxCell id="y_pkQ9m9Z_-Nu_0SvpAD-138" style="edgeStyle=orthogonalEdgeStyle;curved=1;orthogonalLoop=1;jettySize=auto;html=1;exitX=0.5;exitY=1;exitDx=0;exitDy=0;entryX=0;entryY=0.5;entryDx=0;entryDy=0;" parent="1" source="y_pkQ9m9Z_-Nu_0SvpAD-140" target="y_pkQ9m9Z_-Nu_0SvpAD-144" edge="1">
          <mxGeometry relative="1" as="geometry" />
        </mxCell>
        <mxCell id="y_pkQ9m9Z_-Nu_0SvpAD-139" style="edgeStyle=orthogonalEdgeStyle;curved=1;orthogonalLoop=1;jettySize=auto;html=1;exitX=1;exitY=0.5;exitDx=0;exitDy=0;entryX=0;entryY=0.5;entryDx=0;entryDy=0;" parent="1" source="y_pkQ9m9Z_-Nu_0SvpAD-140" target="y_pkQ9m9Z_-Nu_0SvpAD-145" edge="1">
          <mxGeometry relative="1" as="geometry" />
        </mxCell>
        <mxCell id="y_pkQ9m9Z_-Nu_0SvpAD-140" value="Buscar albarán" style="ellipse;whiteSpace=wrap;html=1;align=center;" parent="1" vertex="1">
          <mxGeometry x="1660" y="300" width="100" height="40" as="geometry" />
        </mxCell>
        <mxCell id="y_pkQ9m9Z_-Nu_0SvpAD-141" style="edgeStyle=orthogonalEdgeStyle;curved=1;orthogonalLoop=1;jettySize=auto;html=1;exitX=0.5;exitY=0;exitDx=0;exitDy=0;" parent="1" source="y_pkQ9m9Z_-Nu_0SvpAD-143" edge="1">
          <mxGeometry relative="1" as="geometry">
            <mxPoint x="1760" y="370" as="targetPoint" />
            <Array as="points">
              <mxPoint x="1710" y="370" />
            </Array>
          </mxGeometry>
        </mxCell>
        <mxCell id="y_pkQ9m9Z_-Nu_0SvpAD-142" style="edgeStyle=orthogonalEdgeStyle;curved=1;orthogonalLoop=1;jettySize=auto;html=1;exitX=1;exitY=0.5;exitDx=0;exitDy=0;entryX=0.5;entryY=1;entryDx=0;entryDy=0;" parent="1" source="y_pkQ9m9Z_-Nu_0SvpAD-143" target="y_pkQ9m9Z_-Nu_0SvpAD-145" edge="1">
          <mxGeometry relative="1" as="geometry" />
        </mxCell>
        <mxCell id="y_pkQ9m9Z_-Nu_0SvpAD-143" value="Ver lista albaranes" style="ellipse;whiteSpace=wrap;html=1;align=center;" parent="1" vertex="1">
          <mxGeometry x="1660" y="400" width="100" height="40" as="geometry" />
        </mxCell>
        <mxCell id="y_pkQ9m9Z_-Nu_0SvpAD-144" value="Filtrar albaranes" style="ellipse;whiteSpace=wrap;html=1;align=center;" parent="1" vertex="1">
          <mxGeometry x="1760" y="350" width="100" height="40" as="geometry" />
        </mxCell>
        <mxCell id="y_pkQ9m9Z_-Nu_0SvpAD-145" value="Ver albarán" style="ellipse;whiteSpace=wrap;html=1;align=center;" parent="1" vertex="1">
          <mxGeometry x="1880" y="320" width="100" height="40" as="geometry" />
        </mxCell>
        <mxCell id="y_pkQ9m9Z_-Nu_0SvpAD-151" style="edgeStyle=orthogonalEdgeStyle;rounded=0;orthogonalLoop=1;jettySize=auto;html=1;exitX=1;exitY=0;exitDx=0;exitDy=0;curved=1;" parent="1" source="y_pkQ9m9Z_-Nu_0SvpAD-146" target="y_pkQ9m9Z_-Nu_0SvpAD-149" edge="1">
          <mxGeometry relative="1" as="geometry">
            <mxPoint x="1870" y="460" as="targetPoint" />
          </mxGeometry>
        </mxCell>
        <mxCell id="y_pkQ9m9Z_-Nu_0SvpAD-152" style="edgeStyle=orthogonalEdgeStyle;rounded=0;orthogonalLoop=1;jettySize=auto;html=1;exitX=1;exitY=1;exitDx=0;exitDy=0;entryX=0;entryY=0.5;entryDx=0;entryDy=0;curved=1;" parent="1" source="y_pkQ9m9Z_-Nu_0SvpAD-146" target="y_pkQ9m9Z_-Nu_0SvpAD-147" edge="1">
          <mxGeometry relative="1" as="geometry">
            <mxPoint x="1860" y="530" as="targetPoint" />
          </mxGeometry>
        </mxCell>
        <mxCell id="y_pkQ9m9Z_-Nu_0SvpAD-146" value="Crear factura" style="ellipse;whiteSpace=wrap;html=1;align=center;" parent="1" vertex="1">
          <mxGeometry x="1740" y="460" width="100" height="40" as="geometry" />
        </mxCell>
        <mxCell id="y_pkQ9m9Z_-Nu_0SvpAD-147" value="Buscar factura" style="ellipse;whiteSpace=wrap;html=1;align=center;" parent="1" vertex="1">
          <mxGeometry x="1890" y="510" width="100" height="40" as="geometry" />
        </mxCell>
        <mxCell id="y_pkQ9m9Z_-Nu_0SvpAD-149" value="Mofidicar Factura" style="ellipse;whiteSpace=wrap;html=1;align=center;" parent="1" vertex="1">
          <mxGeometry x="1880" y="425" width="100" height="40" as="geometry" />
        </mxCell>
        <mxCell id="y_pkQ9m9Z_-Nu_0SvpAD-158" style="edgeStyle=orthogonalEdgeStyle;rounded=0;orthogonalLoop=1;jettySize=auto;html=1;exitX=1;exitY=1;exitDx=0;exitDy=0;curved=1;" parent="1" source="y_pkQ9m9Z_-Nu_0SvpAD-153" target="y_pkQ9m9Z_-Nu_0SvpAD-154" edge="1">
          <mxGeometry relative="1" as="geometry" />
        </mxCell>
        <mxCell id="y_pkQ9m9Z_-Nu_0SvpAD-153" value="Crear usuario" style="ellipse;whiteSpace=wrap;html=1;align=center;" parent="1" vertex="1">
          <mxGeometry x="1700" y="530" width="100" height="40" as="geometry" />
        </mxCell>
        <mxCell id="y_pkQ9m9Z_-Nu_0SvpAD-154" value="Modificar usuario" style="ellipse;whiteSpace=wrap;html=1;align=center;" parent="1" vertex="1">
          <mxGeometry x="1820" y="600" width="100" height="40" as="geometry" />
        </mxCell>
        <mxCell id="y_pkQ9m9Z_-Nu_0SvpAD-159" value="Buscar factura" style="ellipse;whiteSpace=wrap;html=1;align=center;" parent="1" vertex="1">
          <mxGeometry x="-340" y="535" width="100" height="40" as="geometry" />
        </mxCell>
        <mxCell id="y_pkQ9m9Z_-Nu_0SvpAD-160" value="Mofidicar Factura" style="ellipse;whiteSpace=wrap;html=1;align=center;" parent="1" vertex="1">
          <mxGeometry x="-350" y="450" width="100" height="40" as="geometry" />
        </mxCell>
      </root>
    </mxGraphModel>
  </diagram>
</mxfile>
